<svg xmlns="http://www.w3.org/2000/svg" width="1536" height="1024" viewBox="0 0 1536 1024" version="1.1"><path d="M 294.303 372.989 C 249.111 379.395, 210.890 410.301, 195.641 452.766 C 194.205 456.763, 192.054 464.638, 190.861 470.266 C 188.751 480.212, 188.696 482.246, 188.908 542.500 L 189.127 604.500 191.549 608.654 C 193.152 611.403, 195.436 613.517, 198.302 614.904 C 202.491 616.932, 204.004 616.999, 245.066 616.978 C 293.495 616.953, 293.344 616.976, 298.684 608.896 L 301.500 604.636 301.461 581.568 C 301.418 556.082, 300.625 550.955, 294.909 539.227 C 287.731 524.497, 275.338 515.794, 254.011 510.503 C 241.329 507.356, 237.630 504.979, 238.185 500.330 C 238.661 496.349, 242.291 494.392, 256.084 490.680 C 263.005 488.818, 271.437 485.818, 274.821 484.015 C 286.789 477.636, 294.094 466.663, 299.902 446.342 C 301.487 440.796, 303.563 435.070, 304.515 433.618 C 306.734 430.231, 310.311 429.318, 313.409 431.348 C 315.945 433.010, 316.999 435.520, 321.871 451.500 C 325.167 462.309, 330.033 471.344, 335.702 477.185 C 341.235 482.885, 349.684 486.786, 364.675 490.562 C 372.196 492.456, 379.170 494.749, 380.175 495.658 C 382.513 497.774, 382.548 503.194, 380.238 505.285 C 379.268 506.162, 373.330 508.279, 367.041 509.989 C 343.264 516.454, 330.825 526.695, 323.810 545.580 C 321.751 551.122, 321.587 553.525, 321.231 583.250 L 320.851 615 324.742 615 C 335.347 615, 352.679 610.036, 366.314 603.095 C 379.368 596.449, 388.020 589.871, 399.210 578.086 C 421.840 554.254, 433.467 522.714, 431.623 490.162 C 429.865 459.113, 418.704 432.718, 398 410.645 C 381.634 393.198, 361.827 381.620, 338 375.572 C 326.307 372.605, 305.634 371.382, 294.303 372.989 M 422.500 387.103 C 418.803 389.243, 417.045 392.370, 417.022 396.850 C 417.004 400.510, 417.560 401.760, 420.527 404.727 C 423.797 407.997, 424.396 408.215, 428.744 407.725 C 442.061 406.224, 442.255 387.649, 428.967 386.375 C 426.510 386.139, 423.600 386.467, 422.500 387.103 M 800.299 410.960 C 792.857 415.497, 791.893 425.765, 798.353 431.684 C 802.458 435.447, 805.643 436.477, 810.405 435.584 C 816.637 434.415, 822 428.101, 822 421.933 C 822 418.333, 818.820 412.862, 815.580 410.886 C 811.509 408.403, 804.435 408.437, 800.299 410.960 M 759.803 432.499 C 759.970 444.875, 759.905 455, 759.659 455 C 759.413 455, 757.792 453.674, 756.058 452.054 C 744.872 441.605, 723.123 443.092, 711.145 455.125 C 692.200 474.156, 697.367 509.226, 720.806 520.693 C 725.524 523.002, 727.652 523.413, 734.930 523.424 C 744.716 523.439, 751.058 521.207, 756.882 515.699 L 760.265 512.500 759.651 517.250 L 759.038 522 769.519 522 L 780 522 780 466 L 780 410 769.750 409.999 L 759.500 409.998 759.803 432.499 M 878 414.560 C 842.116 422.295, 824.188 461.923, 841.591 495.041 C 850.564 512.117, 867.489 522.559, 888.088 523.729 C 904.929 524.685, 917.320 520.618, 930.739 509.731 L 937.157 504.524 929.375 497.416 L 921.592 490.309 916.414 494.527 C 908.615 500.879, 903.449 502.500, 891 502.500 C 881.910 502.500, 879.839 502.175, 875.577 500.077 C 864.198 494.477, 857.871 484.117, 857.207 470 C 856.877 462.974, 857.197 460.469, 859.051 455.551 C 861.763 448.355, 868.456 440.859, 875.480 437.150 C 879.988 434.770, 881.571 434.500, 891 434.500 C 900.495 434.500, 902.010 434.763, 906.831 437.249 C 909.763 438.762, 914.050 441.546, 916.357 443.437 L 920.553 446.874 928.472 439.619 L 936.391 432.363 929.475 427.127 C 913.452 414.998, 895.877 410.707, 878 414.560 M 492.500 469 L 492.500 522 503.275 522 L 514.051 522 513.775 487.500 C 513.624 468.524, 513.725 453.039, 514 453.089 C 514.275 453.138, 521.207 463.247, 529.404 475.553 C 537.602 487.859, 544.675 497.701, 545.123 497.424 C 545.570 497.147, 552.738 487.039, 561.050 474.961 C 569.362 462.882, 576.238 453, 576.331 453 C 576.424 453, 576.421 468.525, 576.324 487.500 L 576.147 522 586.574 522 L 597 522 597 469 L 597 416 586.750 416.007 L 576.500 416.015 566.533 431.257 C 561.050 439.641, 553.998 450.700, 550.861 455.834 C 545.248 465.017, 545.132 465.130, 543.685 462.834 C 542.876 461.550, 539.850 456.675, 536.960 452 C 534.071 447.325, 527.676 437.313, 522.749 429.750 L 513.791 416 503.146 416 L 492.500 416 492.500 469 M 1382 435 L 1382 447 1377 447 L 1372 447 1372 455.500 L 1372 464 1377 464 L 1382 464 1382 482.318 C 1382 504.546, 1383.018 509.071, 1389.474 515.526 C 1394.306 520.359, 1401.219 523.009, 1408.932 522.986 C 1417.916 522.959, 1418 522.870, 1418 513.383 L 1418 505 1413.723 505 C 1404.046 505, 1402 500.555, 1402 479.532 L 1402 464 1409.500 464 L 1417 464 1417 455.500 L 1417 447 1409.500 447 L 1402 447 1402 435 L 1402 423 1392 423 L 1382 423 1382 435 M 641.500 446.341 C 624.682 451.905, 614 466.763, 614 484.592 C 614 505.440, 629.018 521.403, 650.636 523.533 C 663.062 524.757, 674.727 520.985, 683.078 513.041 L 687.260 509.062 681.380 504.359 C 678.146 501.772, 674.974 499.258, 674.331 498.772 C 673.574 498.201, 671.562 499.111, 668.625 501.352 C 663.605 505.184, 655.952 507.323, 650.785 506.338 C 646.551 505.530, 640.967 502.730, 638.788 500.320 C 637.275 498.646, 634 491.952, 634 490.532 C 634 490.239, 646.664 490, 662.143 490 L 690.286 490 689.740 482.250 C 688.981 471.493, 685.986 464.179, 679.447 457.116 C 672.159 449.244, 664.475 445.752, 653.500 445.327 C 648.702 445.141, 643.899 445.547, 641.500 446.341 M 972.762 446.877 C 955.055 452.739, 945 466.313, 945 484.356 C 945 498.639, 949.491 508.196, 959.867 515.993 C 967.345 521.611, 973.675 523.500, 985.022 523.500 C 993.734 523.500, 995.102 523.225, 1001.111 520.266 C 1009.128 516.319, 1017.046 508.273, 1020.804 500.253 C 1023.196 495.150, 1023.500 493.314, 1023.500 484 C 1023.500 474.753, 1023.188 472.843, 1020.890 468 C 1016.899 459.590, 1010.969 453.588, 1002.531 449.418 C 993.148 444.780, 981.975 443.827, 972.762 446.877 M 1070.642 446.402 C 1068.521 447.192, 1065.033 449.246, 1062.892 450.966 L 1059 454.094 1059 450.547 L 1059 447 1049 447 L 1039 447 1039 484.500 L 1039 522 1048.936 522 L 1058.871 522 1059.186 497.750 C 1059.486 474.574, 1059.600 473.339, 1061.766 469.856 C 1067.620 460.443, 1081.172 461.115, 1086.248 471.071 C 1087.768 474.050, 1087.997 477.615, 1087.998 498.250 L 1088 522 1098.250 522.001 L 1108.500 522.002 1108 493.751 C 1107.571 469.516, 1107.247 464.939, 1105.719 461.554 C 1101.073 451.258, 1093.101 445.900, 1081.567 445.321 C 1077.055 445.095, 1073.105 445.486, 1070.642 446.402 M 1158.788 446.134 C 1156.747 446.710, 1153.034 448.978, 1150.538 451.175 L 1146 455.170 1146 451.085 L 1146 447 1136.500 447 L 1127 447 1127 484.500 L 1127 522 1137 522 L 1147 522 1147.002 498.250 C 1147.003 472.203, 1147.447 469.881, 1153.225 465.645 C 1157.036 462.851, 1164.923 462.808, 1168.613 465.562 C 1175.461 470.671, 1175.469 470.706, 1175.814 497.571 L 1176.129 522 1186.136 522 L 1196.143 522 1195.766 494.750 C 1195.451 472.042, 1195.101 466.741, 1193.666 462.944 C 1189.743 452.565, 1180.461 445.936, 1169.100 445.400 C 1165.470 445.228, 1160.830 445.559, 1158.788 446.134 M 1235.751 446.880 C 1224.782 450.511, 1214.732 460.703, 1211.401 471.574 C 1209.595 477.468, 1209.391 489.991, 1211.003 496.100 C 1218.026 522.723, 1255.615 533.046, 1276.264 514.022 L 1281.500 509.198 1279 507.204 C 1277.625 506.108, 1274.525 503.639, 1272.111 501.718 L 1267.721 498.226 1263.405 501.521 C 1258.606 505.184, 1250.851 507.304, 1245.785 506.338 C 1241.551 505.530, 1235.967 502.730, 1233.788 500.320 C 1232.275 498.646, 1229 491.952, 1229 490.532 C 1229 490.239, 1241.437 490, 1256.639 490 L 1284.277 490 1283.777 481.231 C 1283.160 470.411, 1279.883 462.788, 1272.805 455.710 C 1263.303 446.208, 1248.463 442.671, 1235.751 446.880 M 1321.579 447.045 C 1310.309 451.032, 1303.866 456.905, 1298.590 468 C 1295.776 473.920, 1295.500 475.393, 1295.500 484.500 C 1295.500 493.615, 1295.774 495.075, 1298.597 501 C 1303.964 512.261, 1312.752 519.440, 1325.025 522.586 C 1337.442 525.769, 1351.884 522.552, 1360.601 514.659 L 1365.261 510.440 1358.116 504.595 L 1350.970 498.749 1346.879 501.584 C 1340.798 505.798, 1331.764 506.224, 1325.560 502.588 C 1317.731 498, 1313.595 487.933, 1315.948 479.195 C 1318.137 471.063, 1326.967 464.072, 1335.109 464.022 C 1337.167 464.009, 1341.251 465.281, 1344.609 466.979 L 1350.500 469.958 1356.946 463.524 C 1363.343 457.139, 1363.377 457.074, 1361.505 455.005 C 1360.467 453.859, 1356.289 451.275, 1352.220 449.264 C 1345.736 446.060, 1343.750 445.567, 1336.161 445.279 C 1329.313 445.020, 1326.260 445.389, 1321.579 447.045 M 798 484.500 L 798 522 808 522 L 818 522 818 484.500 L 818 447 808 447 L 798 447 798 484.500 M 643.830 463.971 C 639.702 466.215, 636.481 470.233, 635.419 474.467 L 634.705 477.312 639.492 476.656 C 642.125 476.295, 650.066 476, 657.140 476 C 671.395 476, 671.716 475.818, 667.750 469.990 C 663.978 464.447, 660.669 462.628, 653.739 462.285 C 648.973 462.049, 646.634 462.447, 643.830 463.971 M 1238.907 464.325 C 1236.160 465.774, 1233.659 468.128, 1232.266 470.575 C 1228.334 477.486, 1227.970 477.341, 1247.250 476.527 C 1256.737 476.126, 1264.661 475.645, 1264.858 475.458 C 1265.054 475.271, 1264.153 473.193, 1262.855 470.839 C 1258.215 462.429, 1247.847 459.609, 1238.907 464.325 M 731.500 465.828 C 712.772 474.761, 717.912 502.896, 738.595 504.667 C 743.516 505.089, 745.237 504.777, 748.921 502.798 C 751.353 501.491, 754.715 498.727, 756.392 496.655 C 758.979 493.458, 759.495 491.873, 759.797 486.194 C 760.095 480.607, 759.756 478.755, 757.749 475 C 752.974 466.063, 740.296 461.633, 731.500 465.828 M 975.907 466.307 C 969.373 469.728, 965 476.678, 965 483.645 C 965 489.308, 966.878 495.077, 969.788 498.355 C 972.325 501.212, 980.996 504.982, 985 504.968 C 993.441 504.939, 1002.054 497.636, 1003.923 488.925 C 1007.490 472.291, 990.571 458.631, 975.907 466.307 M 627 570 L 627 598 631.500 598 L 636 598 636 586.547 C 636 574.155, 636.889 570.827, 640.657 569.110 C 644.344 567.430, 646.605 567.756, 649.694 570.413 C 652.450 572.783, 652.506 573.052, 652.853 585.413 L 653.206 598 657.103 598 L 661 598 660.998 584.750 C 660.997 569.645, 659.919 566.170, 654 562.182 C 649.734 559.307, 643.360 559.618, 638.896 562.919 L 636 565.060 636 553.530 L 636 542 631.500 542 L 627 542 627 570 M 671 570 L 671 598 675.500 598 C 679.441 598, 680 597.732, 680 595.845 C 680 593.757, 680.062 593.746, 681.990 595.491 C 684.149 597.445, 692.310 598.641, 696.427 597.608 C 699.749 596.774, 705.681 591.514, 707.713 587.602 C 708.622 585.850, 709.323 582.106, 709.323 579 C 709.323 572.547, 707.481 568.507, 702.572 564.198 C 696.876 559.196, 688.172 558.717, 682.601 563.099 L 680 565.145 680 553.573 L 680 542 675.500 542 L 671 542 671 570 M 863 553.568 L 863 565.136 859.750 562.818 C 857.285 561.060, 855.154 560.500, 850.927 560.500 C 840.310 560.500, 833 568.252, 833 579.510 C 833 585.741, 834.451 589.232, 838.661 593.128 C 842.930 597.079, 845.330 598, 851.358 598 C 855.804 598, 857.431 597.508, 859.923 595.411 L 863 592.822 863 595.411 C 863 597.813, 863.325 598, 867.500 598 L 872 598 872 570 L 872 542 867.500 542 L 863 542 863 553.568 M 1072 570 L 1072 598 1076.500 598 L 1081 598 1081 570 L 1081 542 1076.500 542 L 1072 542 1072 570 M 495 571.500 L 495 598 505.818 598 C 522.942 598, 531.888 594.151, 537.683 584.292 C 540.140 580.113, 540.500 578.474, 540.500 571.479 C 540.500 561.693, 537.662 555.251, 531.170 550.299 C 525.376 545.880, 521.455 545.012, 507.250 545.006 L 495 545 495 571.500 M 899 571.418 L 899 598 903.500 598 L 908 598 908 588 L 908 578 914.288 578 C 918.838 578, 921.794 577.378, 924.980 575.750 C 931.062 572.642, 933.286 569.231, 933.774 562.263 C 934.110 557.452, 933.791 555.937, 931.839 553.092 C 927.180 546.303, 925.204 545.536, 911.431 545.168 L 899 544.837 899 571.418 M 503.750 552.555 C 503.337 552.983, 503 561.647, 503 571.808 L 503 590.282 511.313 589.763 C 516.043 589.468, 520.978 588.546, 522.761 587.623 C 535.544 581.013, 534.799 559.036, 521.623 554.043 C 517.914 552.638, 504.728 551.540, 503.750 552.555 M 908.001 561.250 L 908 570 913.865 570 C 921.903 570, 925 567.616, 925 561.427 C 925 558.333, 924.398 556.398, 923 555 C 920.958 552.958, 919.710 552.675, 912.251 552.564 L 908.001 552.500 908.001 561.250 M 557.459 561.824 C 543.721 568.254, 542.256 587.133, 554.874 595.135 C 560.903 598.958, 568.082 599.112, 573.360 595.530 L 577 593.060 577 595.530 C 577 597.745, 577.413 598, 581 598 L 585 598 585 579.500 L 585 561 581 561 C 577.623 561, 577 561.322, 577 563.068 C 577 565.125, 576.983 565.124, 573.872 562.909 C 569.595 559.864, 562.630 559.403, 557.459 561.824 M 600.500 561.167 C 594.281 564.607, 591.862 569.838, 594.049 575.119 C 595.302 578.143, 599.237 580.675, 606.170 582.916 C 610.961 584.465, 612.690 586.464, 611 588.500 C 609.252 590.606, 603.106 590.362, 599.291 588.036 L 596.083 586.080 594.014 588.709 C 591.321 592.133, 591.710 593.046, 597.012 595.750 C 600.086 597.318, 603.183 598, 607.227 598 C 612.404 598, 613.420 597.642, 616.651 594.681 C 619.729 591.860, 620.273 590.721, 620.273 587.095 C 620.273 581.650, 618.389 579.741, 609.433 576.113 C 603.559 573.734, 602.500 572.938, 602.500 570.902 C 602.500 568.794, 603.016 568.463, 606.712 568.194 C 609.028 568.026, 611.883 568.402, 613.056 569.030 C 614.836 569.983, 615.586 569.798, 617.594 567.911 C 618.917 566.668, 620 565.335, 620 564.949 C 620 564.562, 617.779 563.291, 615.065 562.123 C 609.700 559.815, 603.661 559.419, 600.500 561.167 M 726.459 561.880 C 715.683 566.774, 711.847 580.126, 718.380 589.999 C 726.170 601.770, 745.714 600.485, 751.856 587.798 C 755.739 579.776, 754.490 572.185, 748.225 565.738 C 742.549 559.895, 734.118 558.401, 726.459 561.880 M 770.500 561.665 C 763.545 565.340, 760 571.158, 760 578.895 C 760 584.992, 761.301 588.627, 764.814 592.339 C 768.797 596.549, 772.272 598, 778.374 598 C 782.803 598, 784.433 597.506, 786.923 595.411 L 790 592.822 790 595.411 C 790 597.790, 790.344 598, 794.250 598 L 798.500 598 798.500 579.500 L 798.500 561 794.250 561 C 790.688 561, 790 561.319, 790 562.970 C 790 564.838, 789.812 564.812, 786.360 562.470 C 782.060 559.552, 775.162 559.202, 770.500 561.665 M 820.640 562.470 C 817.188 564.812, 817 564.838, 817 562.970 C 817 561.302, 816.310 561, 812.500 561 L 808 561 808 579.500 L 808 598 812.500 598 L 817 598 817 587.450 C 817 573.461, 819.281 569, 826.434 569 C 828.808 569, 829 568.664, 829 564.500 C 829 560.438, 828.770 560, 826.640 560 C 825.341 560, 822.641 561.111, 820.640 562.470 M 948.168 562.089 C 937.407 567.557, 934.721 582.573, 942.789 592.161 C 948.129 598.508, 959.295 600.147, 964.923 595.411 L 968 592.822 968 595.411 C 968 597.813, 968.325 598, 972.500 598 L 977 598 977 579.500 L 977 561 972.500 561 C 968.645 561, 968 561.291, 968 563.030 C 968 565.038, 967.968 565.036, 965.064 562.889 C 960.729 559.684, 953.568 559.345, 948.168 562.089 M 998.640 562.470 C 995.188 564.812, 995 564.838, 995 562.970 C 995 561.302, 994.310 561, 990.500 561 L 986 561 986 579.500 L 986 598 990.500 598 L 995 598 995 587.149 C 995 571.891, 996.727 568, 1003.500 568 C 1010.273 568, 1012 571.891, 1012 587.149 L 1012 598 1016.250 598.002 L 1020.500 598.004 1020 583.252 C 1019.443 566.814, 1018.639 564.480, 1012.540 561.586 C 1007.707 559.292, 1002.869 559.600, 998.640 562.470 M 1039.500 561.421 C 1035.735 563.107, 1030.456 568.616, 1029.061 572.315 C 1026.651 578.709, 1028.910 589.007, 1033.645 593.212 C 1041.011 599.752, 1056.320 599.344, 1062.037 592.455 C 1063.277 590.961, 1063.108 590.498, 1060.597 588.496 L 1057.753 586.228 1054.237 588.614 C 1052.303 589.926, 1049.321 590.998, 1047.610 590.996 C 1043.306 590.991, 1038.471 587.791, 1037.183 584.094 L 1036.104 581 1050.552 581 L 1065 581 1065 578.649 C 1065 575.407, 1063.085 570.061, 1060.696 566.633 C 1056.750 560.972, 1046.263 558.394, 1039.500 561.421 M 1042.329 568.419 C 1039.597 569.641, 1037 572.572, 1037 574.434 C 1037 574.745, 1041.275 575, 1046.500 575 C 1051.793 575, 1056 574.582, 1056 574.056 C 1056 572.037, 1051.352 567.973, 1048.500 567.499 C 1046.850 567.225, 1044.073 567.639, 1042.329 568.419 M 561.388 568.980 C 554.669 571.695, 552.720 581.874, 557.923 587.077 C 563.023 592.177, 572.404 590.986, 575.585 584.835 C 580.327 575.665, 570.900 565.137, 561.388 568.980 M 684.826 569.712 C 681.492 571.780, 680 574.959, 680 579.991 C 680 585.626, 683.255 589.049, 689.256 589.725 C 693.629 590.218, 694.193 590.007, 697.600 586.600 C 701.007 583.193, 701.218 582.629, 700.725 578.255 C 699.767 569.756, 691.723 565.433, 684.826 569.712 M 729.383 569.583 C 725.663 571.418, 724 574.665, 724 580.093 C 724 586.842, 729.895 590.993, 737.463 589.573 C 742.286 588.668, 745.006 584.883, 744.978 579.115 C 744.935 570.137, 737.487 565.585, 729.383 569.583 M 774.256 568.978 C 773.022 569.502, 771.086 571.409, 769.954 573.215 C 765.248 580.723, 770.502 590, 779.460 590 C 785.857 590, 789.107 586.945, 789.742 580.334 C 790.174 575.838, 789.914 574.935, 787.364 572.081 C 784.241 568.587, 778.420 567.209, 774.256 568.978 M 846.420 569.885 C 837.096 575.572, 841.200 590, 852.142 590 C 857.171 590, 859.577 588.718, 861.490 585.020 C 864.452 579.291, 862.447 572.317, 857.033 569.517 C 853.142 567.505, 850.154 567.609, 846.420 569.885 M 951.353 569.926 C 945.137 573.716, 944.793 583.333, 950.707 587.984 C 954.748 591.163, 961.412 590.742, 965.077 587.077 C 967.474 584.679, 968 583.313, 968 579.477 C 968 575.491, 967.497 574.297, 964.600 571.400 C 960.604 567.404, 956.279 566.923, 951.353 569.926" stroke="none" fill="#3344b1" fill-rule="evenodd"/><path d="M -0 512.001 L -0 1024.001 768.250 1023.751 L 1536.500 1023.500 1536.751 511.750 L 1537.002 0 768.501 0 L 0 0 -0 512.001 M 0.496 512.500 C 0.496 794.100, 0.610 909.151, 0.750 768.168 C 0.890 627.186, 0.890 396.786, 0.750 256.168 C 0.610 115.551, 0.496 230.900, 0.496 512.500 M 294.303 372.989 C 249.111 379.395, 210.890 410.301, 195.641 452.766 C 194.205 456.763, 192.054 464.638, 190.861 470.266 C 188.751 480.212, 188.696 482.246, 188.908 542.500 L 189.127 604.500 191.549 608.654 C 193.152 611.403, 195.436 613.517, 198.302 614.904 C 202.491 616.932, 204.004 616.999, 245.066 616.978 C 293.495 616.953, 293.344 616.976, 298.684 608.896 L 301.500 604.636 301.461 581.568 C 301.418 556.082, 300.625 550.955, 294.909 539.227 C 287.731 524.497, 275.338 515.794, 254.011 510.503 C 241.329 507.356, 237.630 504.979, 238.185 500.330 C 238.661 496.349, 242.291 494.392, 256.084 490.680 C 263.005 488.818, 271.437 485.818, 274.821 484.015 C 286.789 477.636, 294.094 466.663, 299.902 446.342 C 301.487 440.796, 303.563 435.070, 304.515 433.618 C 306.734 430.231, 310.311 429.318, 313.409 431.348 C 315.945 433.010, 316.999 435.520, 321.871 451.500 C 325.167 462.309, 330.033 471.344, 335.702 477.185 C 341.235 482.885, 349.684 486.786, 364.675 490.562 C 372.196 492.456, 379.170 494.749, 380.175 495.658 C 382.513 497.774, 382.548 503.194, 380.238 505.285 C 379.268 506.162, 373.330 508.279, 367.041 509.989 C 343.264 516.454, 330.825 526.695, 323.810 545.580 C 321.751 551.122, 321.587 553.525, 321.231 583.250 L 320.851 615 324.742 615 C 335.347 615, 352.679 610.036, 366.314 603.095 C 379.368 596.449, 388.020 589.871, 399.210 578.086 C 421.840 554.254, 433.467 522.714, 431.623 490.162 C 429.865 459.113, 418.704 432.718, 398 410.645 C 381.634 393.198, 361.827 381.620, 338 375.572 C 326.307 372.605, 305.634 371.382, 294.303 372.989 M 422.500 387.103 C 418.803 389.243, 417.045 392.370, 417.022 396.850 C 417.004 400.510, 417.560 401.760, 420.527 404.727 C 423.797 407.997, 424.396 408.215, 428.744 407.725 C 442.061 406.224, 442.255 387.649, 428.967 386.375 C 426.510 386.139, 423.600 386.467, 422.500 387.103 M 800.299 410.960 C 792.857 415.497, 791.893 425.765, 798.353 431.684 C 802.458 435.447, 805.643 436.477, 810.405 435.584 C 816.637 434.415, 822 428.101, 822 421.933 C 822 418.333, 818.820 412.862, 815.580 410.886 C 811.509 408.403, 804.435 408.437, 800.299 410.960 M 759.803 432.499 C 759.970 444.875, 759.905 455, 759.659 455 C 759.413 455, 757.792 453.674, 756.058 452.054 C 744.872 441.605, 723.123 443.092, 711.145 455.125 C 692.200 474.156, 697.367 509.226, 720.806 520.693 C 725.524 523.002, 727.652 523.413, 734.930 523.424 C 744.716 523.439, 751.058 521.207, 756.882 515.699 L 760.265 512.500 759.651 517.250 L 759.038 522 769.519 522 L 780 522 780 466 L 780 410 769.750 409.999 L 759.500 409.998 759.803 432.499 M 878 414.560 C 842.116 422.295, 824.188 461.923, 841.591 495.041 C 850.564 512.117, 867.489 522.559, 888.088 523.729 C 904.929 524.685, 917.320 520.618, 930.739 509.731 L 937.157 504.524 929.375 497.416 L 921.592 490.309 916.414 494.527 C 908.615 500.879, 903.449 502.500, 891 502.500 C 881.910 502.500, 879.839 502.175, 875.577 500.077 C 864.198 494.477, 857.871 484.117, 857.207 470 C 856.877 462.974, 857.197 460.469, 859.051 455.551 C 861.763 448.355, 868.456 440.859, 875.480 437.150 C 879.988 434.770, 881.571 434.500, 891 434.500 C 900.495 434.500, 902.010 434.763, 906.831 437.249 C 909.763 438.762, 914.050 441.546, 916.357 443.437 L 920.553 446.874 928.472 439.619 L 936.391 432.363 929.475 427.127 C 913.452 414.998, 895.877 410.707, 878 414.560 M 492.500 469 L 492.500 522 503.275 522 L 514.051 522 513.775 487.500 C 513.624 468.524, 513.725 453.039, 514 453.089 C 514.275 453.138, 521.207 463.247, 529.404 475.553 C 537.602 487.859, 544.675 497.701, 545.123 497.424 C 545.570 497.147, 552.738 487.039, 561.050 474.961 C 569.362 462.882, 576.238 453, 576.331 453 C 576.424 453, 576.421 468.525, 576.324 487.500 L 576.147 522 586.574 522 L 597 522 597 469 L 597 416 586.750 416.007 L 576.500 416.015 566.533 431.257 C 561.050 439.641, 553.998 450.700, 550.861 455.834 C 545.248 465.017, 545.132 465.130, 543.685 462.834 C 542.876 461.550, 539.850 456.675, 536.960 452 C 534.071 447.325, 527.676 437.313, 522.749 429.750 L 513.791 416 503.146 416 L 492.500 416 492.500 469 M 1382 435 L 1382 447 1377 447 L 1372 447 1372 455.500 L 1372 464 1377 464 L 1382 464 1382 482.318 C 1382 504.546, 1383.018 509.071, 1389.474 515.526 C 1394.306 520.359, 1401.219 523.009, 1408.932 522.986 C 1417.916 522.959, 1418 522.870, 1418 513.383 L 1418 505 1413.723 505 C 1404.046 505, 1402 500.555, 1402 479.532 L 1402 464 1409.500 464 L 1417 464 1417 455.500 L 1417 447 1409.500 447 L 1402 447 1402 435 L 1402 423 1392 423 L 1382 423 1382 435 M 641.500 446.341 C 624.682 451.905, 614 466.763, 614 484.592 C 614 505.440, 629.018 521.403, 650.636 523.533 C 663.062 524.757, 674.727 520.985, 683.078 513.041 L 687.260 509.062 681.380 504.359 C 678.146 501.772, 674.974 499.258, 674.331 498.772 C 673.574 498.201, 671.562 499.111, 668.625 501.352 C 663.605 505.184, 655.952 507.323, 650.785 506.338 C 646.551 505.530, 640.967 502.730, 638.788 500.320 C 637.275 498.646, 634 491.952, 634 490.532 C 634 490.239, 646.664 490, 662.143 490 L 690.286 490 689.740 482.250 C 688.981 471.493, 685.986 464.179, 679.447 457.116 C 672.159 449.244, 664.475 445.752, 653.500 445.327 C 648.702 445.141, 643.899 445.547, 641.500 446.341 M 972.762 446.877 C 955.055 452.739, 945 466.313, 945 484.356 C 945 498.639, 949.491 508.196, 959.867 515.993 C 967.345 521.611, 973.675 523.500, 985.022 523.500 C 993.734 523.500, 995.102 523.225, 1001.111 520.266 C 1009.128 516.319, 1017.046 508.273, 1020.804 500.253 C 1023.196 495.150, 1023.500 493.314, 1023.500 484 C 1023.500 474.753, 1023.188 472.843, 1020.890 468 C 1016.899 459.590, 1010.969 453.588, 1002.531 449.418 C 993.148 444.780, 981.975 443.827, 972.762 446.877 M 1070.642 446.402 C 1068.521 447.192, 1065.033 449.246, 1062.892 450.966 L 1059 454.094 1059 450.547 L 1059 447 1049 447 L 1039 447 1039 484.500 L 1039 522 1048.936 522 L 1058.871 522 1059.186 497.750 C 1059.486 474.574, 1059.600 473.339, 1061.766 469.856 C 1067.620 460.443, 1081.172 461.115, 1086.248 471.071 C 1087.768 474.050, 1087.997 477.615, 1087.998 498.250 L 1088 522 1098.250 522.001 L 1108.500 522.002 1108 493.751 C 1107.571 469.516, 1107.247 464.939, 1105.719 461.554 C 1101.073 451.258, 1093.101 445.900, 1081.567 445.321 C 1077.055 445.095, 1073.105 445.486, 1070.642 446.402 M 1158.788 446.134 C 1156.747 446.710, 1153.034 448.978, 1150.538 451.175 L 1146 455.170 1146 451.085 L 1146 447 1136.500 447 L 1127 447 1127 484.500 L 1127 522 1137 522 L 1147 522 1147.002 498.250 C 1147.003 472.203, 1147.447 469.881, 1153.225 465.645 C 1157.036 462.851, 1164.923 462.808, 1168.613 465.562 C 1175.461 470.671, 1175.469 470.706, 1175.814 497.571 L 1176.129 522 1186.136 522 L 1196.143 522 1195.766 494.750 C 1195.451 472.042, 1195.101 466.741, 1193.666 462.944 C 1189.743 452.565, 1180.461 445.936, 1169.100 445.400 C 1165.470 445.228, 1160.830 445.559, 1158.788 446.134 M 1235.751 446.880 C 1224.782 450.511, 1214.732 460.703, 1211.401 471.574 C 1209.595 477.468, 1209.391 489.991, 1211.003 496.100 C 1218.026 522.723, 1255.615 533.046, 1276.264 514.022 L 1281.500 509.198 1279 507.204 C 1277.625 506.108, 1274.525 503.639, 1272.111 501.718 L 1267.721 498.226 1263.405 501.521 C 1258.606 505.184, 1250.851 507.304, 1245.785 506.338 C 1241.551 505.530, 1235.967 502.730, 1233.788 500.320 C 1232.275 498.646, 1229 491.952, 1229 490.532 C 1229 490.239, 1241.437 490, 1256.639 490 L 1284.277 490 1283.777 481.231 C 1283.160 470.411, 1279.883 462.788, 1272.805 455.710 C 1263.303 446.208, 1248.463 442.671, 1235.751 446.880 M 1321.579 447.045 C 1310.309 451.032, 1303.866 456.905, 1298.590 468 C 1295.776 473.920, 1295.500 475.393, 1295.500 484.500 C 1295.500 493.615, 1295.774 495.075, 1298.597 501 C 1303.964 512.261, 1312.752 519.440, 1325.025 522.586 C 1337.442 525.769, 1351.884 522.552, 1360.601 514.659 L 1365.261 510.440 1358.116 504.595 L 1350.970 498.749 1346.879 501.584 C 1340.798 505.798, 1331.764 506.224, 1325.560 502.588 C 1317.731 498, 1313.595 487.933, 1315.948 479.195 C 1318.137 471.063, 1326.967 464.072, 1335.109 464.022 C 1337.167 464.009, 1341.251 465.281, 1344.609 466.979 L 1350.500 469.958 1356.946 463.524 C 1363.343 457.139, 1363.377 457.074, 1361.505 455.005 C 1360.467 453.859, 1356.289 451.275, 1352.220 449.264 C 1345.736 446.060, 1343.750 445.567, 1336.161 445.279 C 1329.313 445.020, 1326.260 445.389, 1321.579 447.045 M 798 484.500 L 798 522 808 522 L 818 522 818 484.500 L 818 447 808 447 L 798 447 798 484.500 M 643.830 463.971 C 639.702 466.215, 636.481 470.233, 635.419 474.467 L 634.705 477.312 639.492 476.656 C 642.125 476.295, 650.066 476, 657.140 476 C 671.395 476, 671.716 475.818, 667.750 469.990 C 663.978 464.447, 660.669 462.628, 653.739 462.285 C 648.973 462.049, 646.634 462.447, 643.830 463.971 M 1238.907 464.325 C 1236.160 465.774, 1233.659 468.128, 1232.266 470.575 C 1228.334 477.486, 1227.970 477.341, 1247.250 476.527 C 1256.737 476.126, 1264.661 475.645, 1264.858 475.458 C 1265.054 475.271, 1264.153 473.193, 1262.855 470.839 C 1258.215 462.429, 1247.847 459.609, 1238.907 464.325 M 731.500 465.828 C 712.772 474.761, 717.912 502.896, 738.595 504.667 C 743.516 505.089, 745.237 504.777, 748.921 502.798 C 751.353 501.491, 754.715 498.727, 756.392 496.655 C 758.979 493.458, 759.495 491.873, 759.797 486.194 C 760.095 480.607, 759.756 478.755, 757.749 475 C 752.974 466.063, 740.296 461.633, 731.500 465.828 M 975.907 466.307 C 969.373 469.728, 965 476.678, 965 483.645 C 965 489.308, 966.878 495.077, 969.788 498.355 C 972.325 501.212, 980.996 504.982, 985 504.968 C 993.441 504.939, 1002.054 497.636, 1003.923 488.925 C 1007.490 472.291, 990.571 458.631, 975.907 466.307 M 627 570 L 627 598 631.500 598 L 636 598 636 586.547 C 636 574.155, 636.889 570.827, 640.657 569.110 C 644.344 567.430, 646.605 567.756, 649.694 570.413 C 652.450 572.783, 652.506 573.052, 652.853 585.413 L 653.206 598 657.103 598 L 661 598 660.998 584.750 C 660.997 569.645, 659.919 566.170, 654 562.182 C 649.734 559.307, 643.360 559.618, 638.896 562.919 L 636 565.060 636 553.530 L 636 542 631.500 542 L 627 542 627 570 M 671 570 L 671 598 675.500 598 C 679.441 598, 680 597.732, 680 595.845 C 680 593.757, 680.062 593.746, 681.990 595.491 C 684.149 597.445, 692.310 598.641, 696.427 597.608 C 699.749 596.774, 705.681 591.514, 707.713 587.602 C 708.622 585.850, 709.323 582.106, 709.323 579 C 709.323 572.547, 707.481 568.507, 702.572 564.198 C 696.876 559.196, 688.172 558.717, 682.601 563.099 L 680 565.145 680 553.573 L 680 542 675.500 542 L 671 542 671 570 M 863 553.568 L 863 565.136 859.750 562.818 C 857.285 561.060, 855.154 560.500, 850.927 560.500 C 840.310 560.500, 833 568.252, 833 579.510 C 833 585.741, 834.451 589.232, 838.661 593.128 C 842.930 597.079, 845.330 598, 851.358 598 C 855.804 598, 857.431 597.508, 859.923 595.411 L 863 592.822 863 595.411 C 863 597.813, 863.325 598, 867.500 598 L 872 598 872 570 L 872 542 867.500 542 L 863 542 863 553.568 M 1072 570 L 1072 598 1076.500 598 L 1081 598 1081 570 L 1081 542 1076.500 542 L 1072 542 1072 570 M 495 571.500 L 495 598 505.818 598 C 522.942 598, 531.888 594.151, 537.683 584.292 C 540.140 580.113, 540.500 578.474, 540.500 571.479 C 540.500 561.693, 537.662 555.251, 531.170 550.299 C 525.376 545.880, 521.455 545.012, 507.250 545.006 L 495 545 495 571.500 M 899 571.418 L 899 598 903.500 598 L 908 598 908 588 L 908 578 914.288 578 C 918.838 578, 921.794 577.378, 924.980 575.750 C 931.062 572.642, 933.286 569.231, 933.774 562.263 C 934.110 557.452, 933.791 555.937, 931.839 553.092 C 927.180 546.303, 925.204 545.536, 911.431 545.168 L 899 544.837 899 571.418 M 503.750 552.555 C 503.337 552.983, 503 561.647, 503 571.808 L 503 590.282 511.313 589.763 C 516.043 589.468, 520.978 588.546, 522.761 587.623 C 535.544 581.013, 534.799 559.036, 521.623 554.043 C 517.914 552.638, 504.728 551.540, 503.750 552.555 M 908.001 561.250 L 908 570 913.865 570 C 921.903 570, 925 567.616, 925 561.427 C 925 558.333, 924.398 556.398, 923 555 C 920.958 552.958, 919.710 552.675, 912.251 552.564 L 908.001 552.500 908.001 561.250 M 557.459 561.824 C 543.721 568.254, 542.256 587.133, 554.874 595.135 C 560.903 598.958, 568.082 599.112, 573.360 595.530 L 577 593.060 577 595.530 C 577 597.745, 577.413 598, 581 598 L 585 598 585 579.500 L 585 561 581 561 C 577.623 561, 577 561.322, 577 563.068 C 577 565.125, 576.983 565.124, 573.872 562.909 C 569.595 559.864, 562.630 559.403, 557.459 561.824 M 600.500 561.167 C 594.281 564.607, 591.862 569.838, 594.049 575.119 C 595.302 578.143, 599.237 580.675, 606.170 582.916 C 610.961 584.465, 612.690 586.464, 611 588.500 C 609.252 590.606, 603.106 590.362, 599.291 588.036 L 596.083 586.080 594.014 588.709 C 591.321 592.133, 591.710 593.046, 597.012 595.750 C 600.086 597.318, 603.183 598, 607.227 598 C 612.404 598, 613.420 597.642, 616.651 594.681 C 619.729 591.860, 620.273 590.721, 620.273 587.095 C 620.273 581.650, 618.389 579.741, 609.433 576.113 C 603.559 573.734, 602.500 572.938, 602.500 570.902 C 602.500 568.794, 603.016 568.463, 606.712 568.194 C 609.028 568.026, 611.883 568.402, 613.056 569.030 C 614.836 569.983, 615.586 569.798, 617.594 567.911 C 618.917 566.668, 620 565.335, 620 564.949 C 620 564.562, 617.779 563.291, 615.065 562.123 C 609.700 559.815, 603.661 559.419, 600.500 561.167 M 726.459 561.880 C 715.683 566.774, 711.847 580.126, 718.380 589.999 C 726.170 601.770, 745.714 600.485, 751.856 587.798 C 755.739 579.776, 754.490 572.185, 748.225 565.738 C 742.549 559.895, 734.118 558.401, 726.459 561.880 M 770.500 561.665 C 763.545 565.340, 760 571.158, 760 578.895 C 760 584.992, 761.301 588.627, 764.814 592.339 C 768.797 596.549, 772.272 598, 778.374 598 C 782.803 598, 784.433 597.506, 786.923 595.411 L 790 592.822 790 595.411 C 790 597.790, 790.344 598, 794.250 598 L 798.500 598 798.500 579.500 L 798.500 561 794.250 561 C 790.688 561, 790 561.319, 790 562.970 C 790 564.838, 789.812 564.812, 786.360 562.470 C 782.060 559.552, 775.162 559.202, 770.500 561.665 M 820.640 562.470 C 817.188 564.812, 817 564.838, 817 562.970 C 817 561.302, 816.310 561, 812.500 561 L 808 561 808 579.500 L 808 598 812.500 598 L 817 598 817 587.450 C 817 573.461, 819.281 569, 826.434 569 C 828.808 569, 829 568.664, 829 564.500 C 829 560.438, 828.770 560, 826.640 560 C 825.341 560, 822.641 561.111, 820.640 562.470 M 948.168 562.089 C 937.407 567.557, 934.721 582.573, 942.789 592.161 C 948.129 598.508, 959.295 600.147, 964.923 595.411 L 968 592.822 968 595.411 C 968 597.813, 968.325 598, 972.500 598 L 977 598 977 579.500 L 977 561 972.500 561 C 968.645 561, 968 561.291, 968 563.030 C 968 565.038, 967.968 565.036, 965.064 562.889 C 960.729 559.684, 953.568 559.345, 948.168 562.089 M 998.640 562.470 C 995.188 564.812, 995 564.838, 995 562.970 C 995 561.302, 994.310 561, 990.500 561 L 986 561 986 579.500 L 986 598 990.500 598 L 995 598 995 587.149 C 995 571.891, 996.727 568, 1003.500 568 C 1010.273 568, 1012 571.891, 1012 587.149 L 1012 598 1016.250 598.002 L 1020.500 598.004 1020 583.252 C 1019.443 566.814, 1018.639 564.480, 1012.540 561.586 C 1007.707 559.292, 1002.869 559.600, 998.640 562.470 M 1039.500 561.421 C 1035.735 563.107, 1030.456 568.616, 1029.061 572.315 C 1026.651 578.709, 1028.910 589.007, 1033.645 593.212 C 1041.011 599.752, 1056.320 599.344, 1062.037 592.455 C 1063.277 590.961, 1063.108 590.498, 1060.597 588.496 L 1057.753 586.228 1054.237 588.614 C 1052.303 589.926, 1049.321 590.998, 1047.610 590.996 C 1043.306 590.991, 1038.471 587.791, 1037.183 584.094 L 1036.104 581 1050.552 581 L 1065 581 1065 578.649 C 1065 575.407, 1063.085 570.061, 1060.696 566.633 C 1056.750 560.972, 1046.263 558.394, 1039.500 561.421 M 1042.329 568.419 C 1039.597 569.641, 1037 572.572, 1037 574.434 C 1037 574.745, 1041.275 575, 1046.500 575 C 1051.793 575, 1056 574.582, 1056 574.056 C 1056 572.037, 1051.352 567.973, 1048.500 567.499 C 1046.850 567.225, 1044.073 567.639, 1042.329 568.419 M 561.388 568.980 C 554.669 571.695, 552.720 581.874, 557.923 587.077 C 563.023 592.177, 572.404 590.986, 575.585 584.835 C 580.327 575.665, 570.900 565.137, 561.388 568.980 M 684.826 569.712 C 681.492 571.780, 680 574.959, 680 579.991 C 680 585.626, 683.255 589.049, 689.256 589.725 C 693.629 590.218, 694.193 590.007, 697.600 586.600 C 701.007 583.193, 701.218 582.629, 700.725 578.255 C 699.767 569.756, 691.723 565.433, 684.826 569.712 M 729.383 569.583 C 725.663 571.418, 724 574.665, 724 580.093 C 724 586.842, 729.895 590.993, 737.463 589.573 C 742.286 588.668, 745.006 584.883, 744.978 579.115 C 744.935 570.137, 737.487 565.585, 729.383 569.583 M 774.256 568.978 C 773.022 569.502, 771.086 571.409, 769.954 573.215 C 765.248 580.723, 770.502 590, 779.460 590 C 785.857 590, 789.107 586.945, 789.742 580.334 C 790.174 575.838, 789.914 574.935, 787.364 572.081 C 784.241 568.587, 778.420 567.209, 774.256 568.978 M 846.420 569.885 C 837.096 575.572, 841.200 590, 852.142 590 C 857.171 590, 859.577 588.718, 861.490 585.020 C 864.452 579.291, 862.447 572.317, 857.033 569.517 C 853.142 567.505, 850.154 567.609, 846.420 569.885 M 951.353 569.926 C 945.137 573.716, 944.793 583.333, 950.707 587.984 C 954.748 591.163, 961.412 590.742, 965.077 587.077 C 967.474 584.679, 968 583.313, 968 579.477 C 968 575.491, 967.497 574.297, 964.600 571.400 C 960.604 567.404, 956.279 566.923, 951.353 569.926" stroke="none" fill="#fbfbfb" fill-rule="evenodd"/></svg>